<svg width="16" height="16" viewBox="0 0 16 16" fill="none" xmlns="http://www.w3.org/2000/svg">
<path d="M13.6569 9.71331C12.7708 8.82722 11.7132 8.17497 10.5592 7.78669C11.6234 7.00012 12.3149 5.73681 12.3149 4.31491C12.315 1.93566 10.3793 0 8.00002 0C5.62073 0 3.68507 1.93566 3.68507 4.31491C3.68507 5.73684 4.37657 7.00016 5.44079 7.78669C4.28679 8.17494 3.22929 8.82719 2.34313 9.71331C0.832158 11.2243 0 13.2333 0 15.3702C0 15.718 0.281969 16 0.629814 16H15.3702C15.718 16 16 15.718 16 15.3702C16 13.2333 15.1679 11.2243 13.6569 9.71331ZM4.94476 4.31491C4.94476 2.63022 6.31533 1.25966 8.00005 1.25966C9.68477 1.25966 11.0553 2.63022 11.0553 4.31491C11.0553 5.99959 9.68477 7.37016 8.00005 7.37016C6.31533 7.37019 4.94476 5.99959 4.94476 4.31491ZM1.28885 14.7403C1.60741 11.3179 4.49573 8.62981 8.00002 8.62981C11.5043 8.62981 14.3926 11.3178 14.7112 14.7403H1.28885Z" fill="#777C65"/>
</svg>
