<svg width="24" height="24" viewBox="0 0 24 24" fill="none" xmlns="http://www.w3.org/2000/svg">
<path d="M20.1944 3.42818H20.1229L20.1455 3.19905C20.146 3.19405 20.1465 3.18904 20.1468 3.18404C20.2171 2.25558 19.8978 1.3369 19.2928 0.726551C18.8282 0.257996 18.2271 0 17.6001 0V0L6.19258 0.00430383C5.56538 0.00453773 4.964 0.262908 4.49922 0.731791C3.89407 1.34237 3.57444 2.26105 3.64423 3.18932C3.64463 3.19433 3.64508 3.19933 3.64552 3.20434L3.66802 3.43361C2.73652 3.49999 2 4.23295 2 5.12506V6.16514C2 7.1008 2.80999 7.86201 3.80561 7.86201H4.10279L5.62461 23.3628C5.66005 23.7238 5.98237 24 6.36815 24L17.4133 23.9955C17.7988 23.9954 18.1208 23.7194 18.1564 23.3586L19.6854 7.86206H20.1944C21.19 7.86206 22 7.10084 22 6.16518V5.12511C22 4.1894 21.19 3.42818 20.1944 3.42818ZM5.59196 1.68832C5.71879 1.56037 5.92607 1.40777 6.19313 1.40768L17.5998 1.40342C17.8665 1.40342 18.0736 1.55555 18.2002 1.68322C18.5265 2.01227 18.6973 2.53299 18.6578 3.07738L18.6232 3.42818H5.16725L5.1334 3.08336C5.09422 2.53888 5.26541 2.01784 5.59196 1.68832ZM17.2548 17.2964H6.52879L5.93568 11.2555H17.8509L17.2548 17.2964ZM7.04912 22.5963L6.66657 18.6998H17.1164L16.7323 22.5924L7.04912 22.5963ZM17.9894 9.85206H5.79789L5.60251 7.86206H18.1857L17.9894 9.85206ZM20.5066 6.16518C20.5066 6.327 20.3666 6.45864 20.1944 6.45864H3.80566C3.63348 6.45864 3.4934 6.327 3.4934 6.16518V5.12511C3.4934 4.96329 3.63348 4.83165 3.80566 4.83165H20.1943C20.3665 4.83165 20.5066 4.96329 20.5066 5.12511L20.5066 6.16518Z" fill="#3C3C3A"/>
</svg>
