<svg width="16" height="16" viewBox="0 0 16 16" fill="none" xmlns="http://www.w3.org/2000/svg">
<g clip-path="url(#clip0_775_7674)">
<path d="M12.9714 7.8179C14.6112 6.34373 14.7455 3.81935 13.2714 2.17954C11.9193 0.675559 9.6562 0.420058 8.00286 1.58476C6.20052 0.312781 3.70832 0.742724 2.43633 2.54503C1.26918 4.1988 1.52365 6.46423 3.0286 7.81787C1.15866 8.80358 -0.00842515 10.7469 4.58029e-05 12.8607V14.575C4.58029e-05 14.8906 0.255882 15.1464 0.571484 15.1464H15.4286C15.7442 15.1464 16 14.8906 16 14.575V12.8607C16.0084 10.7469 14.8414 8.80358 12.9714 7.8179ZM10.2857 2.00362C11.8614 2.00188 13.1402 3.27785 13.142 4.85358C13.1433 5.97737 12.4847 6.99719 11.46 7.45844C11.416 7.47843 11.372 7.49671 11.3274 7.51559C11.1864 7.57248 11.0409 7.61775 10.8926 7.65103C10.864 7.65732 10.8354 7.66074 10.8063 7.66646C10.6405 7.69824 10.4722 7.71525 10.3034 7.71732C10.2274 7.71732 10.1508 7.7116 10.0748 7.70477C10.0463 7.70477 10.0177 7.70477 9.98911 7.69904C9.66434 7.66081 9.3484 7.56769 9.05483 7.42362C9.04398 7.41846 9.03139 7.41903 9.02054 7.41448C8.96339 7.38706 8.90627 7.36305 8.85541 7.33218C8.86 7.32645 8.86284 7.32019 8.8674 7.31447C9.12943 6.97777 9.33601 6.60144 9.47938 6.19962L9.49709 6.15161C9.56228 5.95969 9.61291 5.76315 9.64853 5.56359C9.65369 5.53447 9.65767 5.50644 9.66226 5.47503C9.69531 5.2719 9.71268 5.06655 9.71426 4.86074C9.71262 4.65533 9.69524 4.45035 9.66226 4.24759C9.65767 4.21789 9.65369 4.19043 9.64853 4.15903C9.61291 3.95951 9.56228 3.76293 9.49709 3.57101L9.47938 3.523C9.33601 3.12118 9.12939 2.74485 8.8674 2.40815C8.86281 2.40243 8.85996 2.39616 8.85541 2.39044C9.28954 2.13718 9.7831 2.00366 10.2857 2.00362ZM2.85717 4.86077C2.85312 3.28692 4.12567 2.00777 5.69953 2.00372C6.43727 2.00181 7.14702 2.28611 7.67945 2.79678C7.7126 2.82879 7.74518 2.86076 7.77715 2.89391C7.87529 2.99673 7.96579 3.10655 8.04802 3.22247C8.07317 3.25789 8.09604 3.29563 8.11944 3.33219C8.1993 3.4551 8.26941 3.58407 8.32914 3.7179C8.34344 3.75048 8.35428 3.78362 8.36684 3.81617C8.42707 3.96419 8.47448 4.11714 8.50857 4.2733C8.51259 4.29044 8.51373 4.30758 8.51714 4.3253C8.58953 4.68011 8.58953 5.0459 8.51714 5.4007C8.51373 5.41842 8.51255 5.43556 8.50857 5.4527C8.47452 5.60886 8.42711 5.76181 8.36684 5.90983C8.35428 5.94241 8.3434 5.97556 8.32914 6.0081C8.26934 6.14173 8.19923 6.2705 8.11944 6.39324C8.096 6.42981 8.07317 6.46754 8.04802 6.50297C7.96583 6.61891 7.87529 6.7287 7.77715 6.83152C7.74515 6.86467 7.71257 6.89668 7.67945 6.92866C7.44809 7.14913 7.18134 7.32917 6.89032 7.46122C6.84404 7.48235 6.79717 7.5018 6.74976 7.51837C6.61201 7.57305 6.47028 7.61698 6.32577 7.64979C6.28978 7.65779 6.25262 7.66235 6.21605 7.66864C6.0609 7.69754 5.90357 7.71337 5.74577 7.71608H5.68292C5.52512 7.71341 5.36779 7.69754 5.21263 7.66864C5.17607 7.66235 5.1389 7.65779 5.10291 7.64979C4.9584 7.61698 4.81664 7.57305 4.67893 7.51837C4.63148 7.49952 4.58464 7.4801 4.53837 7.46122C3.51603 6.99964 2.85847 5.98245 2.85717 4.86077ZM10.2857 14.0036H1.14289V12.8607C1.13452 10.9244 2.35454 9.19552 4.18172 8.55447C5.16261 8.96285 6.26594 8.96285 7.24687 8.55447C7.43765 8.62418 7.62357 8.70645 7.80344 8.80077C7.9223 8.86191 8.03202 8.93161 8.14629 9.00189C8.22059 9.04817 8.29599 9.09333 8.36744 9.14419C8.47773 9.22247 8.58173 9.30762 8.68402 9.39504C8.74974 9.45219 8.81486 9.50931 8.87657 9.56647C8.97085 9.6556 9.05941 9.74988 9.14456 9.84648C9.2057 9.91619 9.26513 9.98703 9.32171 10.0602C9.39658 10.1562 9.468 10.2545 9.53429 10.3556C9.59144 10.4413 9.6423 10.5304 9.69256 10.6196C9.74971 10.7179 9.80228 10.8162 9.85026 10.9185C9.89827 11.0208 9.94056 11.1328 9.98168 11.2419C10.0177 11.3368 10.056 11.431 10.0857 11.5276C10.1257 11.6602 10.1537 11.7973 10.1817 11.9344C10.1988 12.0156 10.2211 12.095 10.2337 12.1773C10.2675 12.4035 10.2849 12.6319 10.2857 12.8607V14.0036H10.2857ZM14.8571 14.0036H11.4286V12.8607C11.4286 12.6819 11.4183 12.5047 11.4023 12.3293C11.3977 12.2779 11.3897 12.227 11.384 12.1756C11.3686 12.0493 11.3509 11.9242 11.3269 11.8002C11.3166 11.7472 11.3057 11.694 11.2943 11.6407C11.2669 11.5135 11.235 11.3874 11.1989 11.2624C11.1869 11.2213 11.176 11.1796 11.1634 11.139C11.0034 10.6275 10.7716 10.1414 10.4749 9.69504L10.4526 9.66246C10.3543 9.51655 10.2493 9.37542 10.1377 9.23905L10.1337 9.23389C10.0194 9.09219 9.89543 8.95445 9.76515 8.82417C9.77258 8.82417 9.78059 8.82417 9.78859 8.82417C9.94984 8.84536 10.1122 8.85682 10.2749 8.85846H10.3063C10.4569 8.85715 10.6072 8.84741 10.7566 8.82933C10.8035 8.8236 10.8498 8.81503 10.8966 8.8076C11.0181 8.78895 11.1381 8.76474 11.2566 8.73504C11.2903 8.72647 11.3246 8.71847 11.3589 8.70876C11.5144 8.66647 11.667 8.61454 11.816 8.55334C13.6445 9.19375 14.8657 10.9234 14.8572 12.8608V14.0036H14.8571Z" fill="#777C65"/>
</g>
<defs>
<clipPath id="clip0_775_7674">
<rect width="16" height="16" fill="white"/>
</clipPath>
</defs>
</svg>
