<svg width="16" height="16" viewBox="0 0 16 16" fill="none" xmlns="http://www.w3.org/2000/svg">
<g clip-path="url(#clip0_565:205)">
<path d="M15.8325 7.59561L14.6902 6.45329L8.40419 0.167311C8.18105 -0.0557906 7.8193 -0.0557906 7.59616 0.167311L1.31015 6.45329L0.167259 7.59621C-0.0519919 7.82323 -0.0457305 8.18499 0.181288 8.40424C0.402749 8.61813 0.753824 8.61813 0.975285 8.40424L1.14213 8.23622V15.4285C1.14213 15.7441 1.39798 16 1.7136 16H14.2856C14.6012 16 14.857 15.7441 14.857 15.4285V8.23622L15.0245 8.40367C15.2515 8.62292 15.6132 8.61663 15.8325 8.38964C16.0464 8.16818 16.0464 7.81707 15.8325 7.59561ZM9.71396 14.8571H6.28525V10.2854H9.71396V14.8571ZM13.7141 14.8571H10.8569V9.71402C10.8569 9.3984 10.601 9.14255 10.2854 9.14255H5.71378C5.39816 9.14255 5.14232 9.3984 5.14232 9.71402V14.8571H2.28506V7.09332L7.99957 1.37878L13.7141 7.09332V14.8571Z" fill="#777C65"/>
</g>
<defs>
<clipPath id="clip0_565:205">
<rect width="16" height="16" fill="white"/>
</clipPath>
</defs>
</svg>
