<svg width="16" height="16" viewBox="0 0 16 16" fill="none" xmlns="http://www.w3.org/2000/svg">
<g clip-path="url(#clip0_526_4272)">
<path d="M10.8574 13.7143L10.8574 10.8571C10.8574 10.5415 10.6015 10.2857 10.2859 10.2857C9.97034 10.2857 9.7145 10.5415 9.7145 10.8571L9.7145 13.7143C9.7145 14.0299 9.45866 14.2857 9.14306 14.2857L1.71442 14.2857C1.39881 14.2857 1.14297 14.0299 1.14297 13.7143L1.14297 2.28565C1.14297 1.97004 1.39881 1.7142 1.71442 1.7142L9.14309 1.71421C9.45869 1.71421 9.71453 1.97004 9.71453 2.28565L9.71453 5.1428C9.71453 5.45841 9.97037 5.71425 10.286 5.71425C10.6016 5.71425 10.8574 5.45841 10.8574 5.1428L10.8574 2.28565C10.8574 1.33887 10.0899 0.57135 9.14312 0.57135L1.71449 0.57135C0.767705 0.57135 0.000186887 1.33887 0.000186845 2.28565L0.000186346 13.7143C0.000186304 14.6611 0.767704 15.4286 1.71449 15.4286L9.14309 15.4286C10.0899 15.4286 10.8574 14.6611 10.8574 13.7143Z" fill="#777C65"/>
<path d="M12.9755 11.2612L15.8327 8.40401C16.0558 8.18089 16.0558 7.81914 15.8327 7.59602L12.9755 4.73883C12.7485 4.51959 12.3868 4.52588 12.1675 4.75289C11.9536 4.97435 11.9536 5.32541 12.1675 5.54686L14.0493 7.4286L4.57145 7.4286C4.25584 7.4286 4 7.68444 4 8.00005C4 8.31565 4.25584 8.57149 4.57145 8.57149L14.0492 8.57149L12.1675 10.4532C11.9483 10.6802 11.9545 11.042 12.1816 11.2612C12.403 11.4751 12.7541 11.4751 12.9755 11.2612Z" fill="#777C65"/>
</g>
<defs>
<clipPath id="clip0_526_4272">
<rect width="16" height="16" fill="white" transform="translate(16) rotate(90)"/>
</clipPath>
</defs>
</svg>
