<svg width="24" height="24" viewBox="0 0 24 24" fill="none" xmlns="http://www.w3.org/2000/svg">
<path d="M20.4853 14.57C19.1562 13.2408 17.5698 12.2625 15.8388 11.68C17.4351 10.5002 18.4724 8.60522 18.4724 6.47236C18.4724 2.90348 15.569 0 12 0C8.4311 0 5.5276 2.90348 5.5276 6.47236C5.5276 8.60527 6.56486 10.5002 8.16119 11.68C6.43018 12.2624 4.84393 13.2408 3.51469 14.57C1.24824 16.8365 0 19.85 0 23.0553C0 23.577 0.422954 24 0.944721 24H23.0553C23.577 24 24 23.577 24 23.0553C24 19.85 22.7518 16.8365 20.4853 14.57ZM7.41714 6.47236C7.41714 3.94533 9.47299 1.88948 12.0001 1.88948C14.5272 1.88948 16.583 3.94533 16.583 6.47236C16.583 8.99939 14.5272 11.0552 12.0001 11.0552C9.47299 11.0553 7.41714 8.99939 7.41714 6.47236ZM1.93327 22.1105C2.41111 16.9768 6.74359 12.9447 12 12.9447C17.2565 12.9447 21.5889 16.9768 22.0668 22.1105H1.93327Z" fill="#1A1A1A"/>
</svg>
